<?xml version="1.0" encoding="UTF-8" standalone="no"?>
<!DOCTYPE svg PUBLIC "-//W3C//DTD SVG 1.1//EN"
 "http://www.w3.org/Graphics/SVG/1.1/DTD/svg11.dtd">
<!-- Generated by graphviz version 2.43.0 (0)
 -->
<!-- Title: %3 Pages: 1 -->
<svg width="1992pt" height="238pt"
 viewBox="0.00 0.00 1992.00 237.74" xmlns="http://www.w3.org/2000/svg" xmlns:xlink="http://www.w3.org/1999/xlink">
<g id="graph0" class="graph" transform="scale(1 1) rotate(0) translate(36 201.74)">
<title>%3</title>
<polygon fill="dimgray" stroke="transparent" points="-36,36 -36,-201.74 1956,-201.74 1956,36 -36,36"/>
<text text-anchor="middle" x="960" y="-150.54" font-family="Helvetica,sans-Serif" font-size="14.00">Sweep&#39;s Plan &amp; Progress</text>
<!-- start -->
<g id="node1" class="node">
<title>start</title>
</g>
<!-- 4b588ff4&#45;b509&#45;426b&#45;99f8&#45;a66087c48922 -->
<g id="node3" class="node">
<title>4b588ff4&#45;b509&#45;426b&#45;99f8&#45;a66087c48922</title>
<ellipse fill="yellow" stroke="black" cx="423.5" cy="-99.87" rx="370.55" ry="26.74"/>
<text text-anchor="middle" x="423.5" y="-103.67" font-family="Helvetica,sans-Serif" font-size="14.00">⋯ Modify</text>
<text text-anchor="middle" x="423.5" y="-88.67" font-family="Helvetica,sans-Serif" font-size="14.00">modules/multipass/passes/validate&#45;check&#45;generated&#45;component/index.js</text>
</g>
<!-- start&#45;&gt;4b588ff4&#45;b509&#45;426b&#45;99f8&#45;a66087c48922 -->
<g id="edge6" class="edge">
<title>start&#45;&gt;4b588ff4&#45;b509&#45;426b&#45;99f8&#45;a66087c48922</title>
<path fill="none" stroke="black" d="M1.19,-99.87C4.51,-99.87 19.76,-99.87 42.62,-99.87"/>
<polygon fill="black" stroke="black" points="42.87,-103.37 52.87,-99.87 42.87,-96.37 42.87,-103.37"/>
<text text-anchor="middle" x="26.99" y="-106.67" font-family="Helvetica,sans-Serif" font-size="14.00">Start</text>
</g>
<!-- end -->
<g id="node2" class="node">
<title>end</title>
</g>
<!-- 87687746&#45;9aac&#45;42da&#45;97d5&#45;47efa7f55bf5 -->
<g id="node4" class="node">
<title>87687746&#45;9aac&#45;42da&#45;97d5&#45;47efa7f55bf5</title>
<ellipse fill="white" stroke="black" cx="1077.5" cy="-99.87" rx="247.47" ry="26.74"/>
<text text-anchor="middle" x="1077.5" y="-103.67" font-family="Helvetica,sans-Serif" font-size="14.00">▶ Modify</text>
<text text-anchor="middle" x="1077.5" y="-88.67" font-family="Helvetica,sans-Serif" font-size="14.00">library/components/next/flowbite/metadata.json</text>
</g>
<!-- 4b588ff4&#45;b509&#45;426b&#45;99f8&#45;a66087c48922&#45;&gt;87687746&#45;9aac&#45;42da&#45;97d5&#45;47efa7f55bf5 -->
<g id="edge2" class="edge">
<title>4b588ff4&#45;b509&#45;426b&#45;99f8&#45;a66087c48922&#45;&gt;87687746&#45;9aac&#45;42da&#45;97d5&#45;47efa7f55bf5</title>
<path fill="none" stroke="black" d="M794.25,-99.87C802.8,-99.87 811.35,-99.87 819.9,-99.87"/>
<polygon fill="black" stroke="black" points="819.93,-103.37 829.93,-99.87 819.93,-96.37 819.93,-103.37"/>
</g>
<!-- 6dfce160&#45;278e&#45;49a5&#45;bf3a&#45;210bc56d4be5 -->
<g id="node6" class="node">
<title>6dfce160&#45;278e&#45;49a5&#45;bf3a&#45;210bc56d4be5</title>
<polygon fill="white" stroke="black" points="781,-36 66,-36 66,0 781,0 781,-36"/>
<text text-anchor="middle" x="423.5" y="-14.3" font-family="Helvetica,sans-Serif" font-size="14.00">▶ Run GitHub Actions for `modules/multipass/passes/validate&#45;check&#45;generated&#45;component/index.js`</text>
</g>
<!-- 4b588ff4&#45;b509&#45;426b&#45;99f8&#45;a66087c48922&#45;&gt;6dfce160&#45;278e&#45;49a5&#45;bf3a&#45;210bc56d4be5 -->
<g id="edge1" class="edge">
<title>4b588ff4&#45;b509&#45;426b&#45;99f8&#45;a66087c48922&#45;&gt;6dfce160&#45;278e&#45;49a5&#45;bf3a&#45;210bc56d4be5</title>
<path fill="none" stroke="black" stroke-dasharray="5,2" d="M423.5,-72.72C423.5,-64.27 423.5,-54.89 423.5,-46.36"/>
<polygon fill="black" stroke="black" points="427,-46.15 423.5,-36.15 420,-46.15 427,-46.15"/>
</g>
<!-- 96bbfe7e&#45;87b8&#45;4512&#45;883e&#45;e001ac7a97e6 -->
<g id="node5" class="node">
<title>96bbfe7e&#45;87b8&#45;4512&#45;883e&#45;e001ac7a97e6</title>
<ellipse fill="white" stroke="black" cx="1617.5" cy="-99.87" rx="243.9" ry="26.74"/>
<text text-anchor="middle" x="1617.5" y="-103.67" font-family="Helvetica,sans-Serif" font-size="14.00">▶ Modify</text>
<text text-anchor="middle" x="1617.5" y="-88.67" font-family="Helvetica,sans-Serif" font-size="14.00">library/components/next/shadcn/metadata.json</text>
</g>
<!-- 87687746&#45;9aac&#45;42da&#45;97d5&#45;47efa7f55bf5&#45;&gt;96bbfe7e&#45;87b8&#45;4512&#45;883e&#45;e001ac7a97e6 -->
<g id="edge4" class="edge">
<title>87687746&#45;9aac&#45;42da&#45;97d5&#45;47efa7f55bf5&#45;&gt;96bbfe7e&#45;87b8&#45;4512&#45;883e&#45;e001ac7a97e6</title>
<path fill="none" stroke="black" d="M1325.09,-99.87C1337.78,-99.87 1350.47,-99.87 1363.17,-99.87"/>
<polygon fill="black" stroke="black" points="1363.35,-103.37 1373.35,-99.87 1363.35,-96.37 1363.35,-103.37"/>
</g>
<!-- 86725a78&#45;2fa0&#45;41af&#45;bf7c&#45;bd90f1589686 -->
<g id="node7" class="node">
<title>86725a78&#45;2fa0&#45;41af&#45;bf7c&#45;bd90f1589686</title>
<polygon fill="white" stroke="black" points="1344,-36 803,-36 803,0 1344,0 1344,-36"/>
<text text-anchor="middle" x="1073.5" y="-14.3" font-family="Helvetica,sans-Serif" font-size="14.00">▶ Run GitHub Actions for `library/components/next/flowbite/metadata.json`</text>
</g>
<!-- 87687746&#45;9aac&#45;42da&#45;97d5&#45;47efa7f55bf5&#45;&gt;86725a78&#45;2fa0&#45;41af&#45;bf7c&#45;bd90f1589686 -->
<g id="edge3" class="edge">
<title>87687746&#45;9aac&#45;42da&#45;97d5&#45;47efa7f55bf5&#45;&gt;86725a78&#45;2fa0&#45;41af&#45;bf7c&#45;bd90f1589686</title>
<path fill="none" stroke="black" stroke-dasharray="5,2" d="M1076.19,-72.72C1075.77,-64.27 1075.3,-54.89 1074.87,-46.36"/>
<polygon fill="black" stroke="black" points="1078.35,-45.96 1074.36,-36.15 1071.36,-46.31 1078.35,-45.96"/>
</g>
<!-- 96bbfe7e&#45;87b8&#45;4512&#45;883e&#45;e001ac7a97e6&#45;&gt;end -->
<g id="edge7" class="edge">
<title>96bbfe7e&#45;87b8&#45;4512&#45;883e&#45;e001ac7a97e6&#45;&gt;end</title>
<path fill="none" stroke="black" d="M1861.63,-99.87C1881.94,-99.87 1898.56,-99.87 1908.7,-99.87"/>
<polygon fill="black" stroke="black" points="1908.89,-103.37 1918.89,-99.87 1908.89,-96.37 1908.89,-103.37"/>
<text text-anchor="middle" x="1890.23" y="-106.67" font-family="Helvetica,sans-Serif" font-size="14.00">Finish</text>
</g>
<!-- 452617d4&#45;be31&#45;4b3c&#45;804c&#45;380283c67217 -->
<g id="node8" class="node">
<title>452617d4&#45;be31&#45;4b3c&#45;804c&#45;380283c67217</title>
<polygon fill="white" stroke="black" points="1898.5,-36 1362.5,-36 1362.5,0 1898.5,0 1898.5,-36"/>
<text text-anchor="middle" x="1630.5" y="-14.3" font-family="Helvetica,sans-Serif" font-size="14.00">▶ Run GitHub Actions for `library/components/next/shadcn/metadata.json`</text>
</g>
<!-- 96bbfe7e&#45;87b8&#45;4512&#45;883e&#45;e001ac7a97e6&#45;&gt;452617d4&#45;be31&#45;4b3c&#45;804c&#45;380283c67217 -->
<g id="edge5" class="edge">
<title>96bbfe7e&#45;87b8&#45;4512&#45;883e&#45;e001ac7a97e6&#45;&gt;452617d4&#45;be31&#45;4b3c&#45;804c&#45;380283c67217</title>
<path fill="none" stroke="black" stroke-dasharray="5,2" d="M1621.76,-72.72C1623.15,-64.18 1624.69,-54.68 1626.09,-46.08"/>
<polygon fill="black" stroke="black" points="1629.56,-46.58 1627.71,-36.15 1622.65,-45.45 1629.56,-46.58"/>
</g>
</g>
</svg>
